
<svg width="36px" height="30px" viewBox="0 0 36 30" version="1.1" xmlns="http://www.w3.org/2000/svg" xmlns:xlink="http://www.w3.org/1999/xlink">
    <!-- Generator: Sketch 51.2 (57519) - http://www.bohemiancoding.com/sketch -->
    <desc>Created with Sketch.</desc>
    <defs></defs>
    <g id="Meeting-room-caffeina" stroke="none" stroke-width="1" fill="none" fill-rule="evenodd">
        <g id="1.1.1-meeting-room" transform="translate(-68.000000, -36.000000)" fill="#FFFFFF">
            <g id="Home" transform="translate(-228.000000, -9.000000)">
                <g id="Header" transform="translate(296.000000, 8.000000)">
                    <path d="M34.0325858,49.1799477 L9.94303007,49.1799477 L17.5159065,41.5653514 C17.8867357,41.1935926 18.0901502,40.6899856 18.0901502,40.1614185 C18.0901502,39.6328514 17.8867357,39.1327682 17.5159065,38.7601284 L16.3375653,37.5773127 C15.9670288,37.2055539 15.4732728,37 14.9467363,37 C14.4199071,37 13.9258585,37.2040856 13.555322,37.5758445 L0.573958936,50.5988567 C0.201959017,50.9720838 -0.00145557294,51.4692305 7.84137361e-06,51.9980913 C-0.00145557294,52.5298885 0.201959017,53.0273289 0.573958936,53.3999687 L13.555322,66.4241555 C13.9258585,66.7956207 14.4196145,67 14.9467363,67 C15.4732728,67 15.9670288,66.7953271 16.3375653,66.4241555 L17.5159065,65.2413398 C17.8867357,64.8701683 18.0901502,64.3744898 18.0901502,63.8459227 C18.0901502,63.3176492 17.8867357,62.8481055 17.5159065,62.4766403 L9.85756667,54.819465 L34.0033175,54.819465 C35.0882929,54.819465 36,53.8812584 36,52.7932911 L36,51.1203763 C36,50.032409 35.0613661,49.1676145 33.9763907,49.1676145" id="Flecha-sala" transform="translate(18.000000, 52.000000) scale(-1, 1) translate(-18.000000, -52.000000) "></path>
                </g>
            </g>
        </g>
    </g>
</svg>