
<svg width="24px" height="24px" viewBox="0 0 24 24" version="1.1" xmlns="http://www.w3.org/2000/svg" xmlns:xlink="http://www.w3.org/1999/xlink">
    <!-- Generator: Sketch 51.2 (57519) - http://www.bohemiancoding.com/sketch -->
    <desc>Created with Sketch.</desc>
    <defs></defs>
    <g id="Meeting-room-caffeina" stroke="none" stroke-width="1" fill="none" fill-rule="evenodd">
        <g id="2.1.1-Modale-meeting" transform="translate(-665.000000, -263.000000)" fill="#FFFFFF" fill-rule="nonzero">
            <g id="Modale" transform="translate(56.000000, 228.000000)">
                <path d="M632.485714,35.5142857 C631.8,34.8285714 630.771429,34.8285714 630.085714,35.5142857 L621,44.6 L611.914286,35.5142857 C611.228571,34.8285714 610.2,34.8285714 609.514286,35.5142857 C608.828571,36.2 608.828571,37.2285714 609.514286,37.9142857 L618.6,47 L609.514286,56.0857143 C608.828571,56.7714286 608.828571,57.8 609.514286,58.4857143 C609.857143,58.8285714 610.2,59 610.714286,59 C611.228571,59 611.571429,58.8285714 611.914286,58.4857143 L621,49.4 L630.085714,58.4857143 C630.428571,58.8285714 630.942857,59 631.285714,59 C631.628571,59 632.142857,58.8285714 632.485714,58.4857143 C633.171429,57.8 633.171429,56.7714286 632.485714,56.0857143 L623.4,47 L632.485714,37.9142857 C633.171429,37.2285714 633.171429,36.2 632.485714,35.5142857 Z" id="Close"></path>
            </g>
        </g>
    </g>
</svg>