<?xml version="1.0" encoding="UTF-8"?>
<svg width="21px" height="20px" viewBox="0 0 21 20" version="1.1" xmlns="http://www.w3.org/2000/svg" xmlns:xlink="http://www.w3.org/1999/xlink">
    <!-- Generator: Sketch 51 (57462) - http://www.bohemiancoding.com/sketch -->
    <title>Group</title>
    <desc>Created with Sketch.</desc>
    <defs></defs>
    <g id="Meeting-room-caffeina" stroke="none" stroke-width="1" fill="none" fill-rule="evenodd">
        <g id="1.1.1-meeting-room" transform="translate(-239.000000, -1204.000000)">
            <g id="Home" transform="translate(-228.000000, -9.000000)">
                <g id="Scroll" transform="translate(267.000000, 531.000000)">
                    <g id="Eventi" transform="translate(140.000000, 567.000000)">
                        <g id="Evento">
                            <g id="Group-7" transform="translate(24.000000, 94.000000)">
                                <g id="Group-6">
                                    <g id="TICK" transform="translate(36.720000, 21.600000)">
                                        <g id="Group">
                                            <path d="M14.7857143,5.21428571 C14.5,4.92857143 14.0714286,4.92857143 13.7857143,5.21428571 L10,9 L6.21428571,5.21428571 C5.92857143,4.92857143 5.5,4.92857143 5.21428571,5.21428571 C4.92857143,5.5 4.92857143,5.92857143 5.21428571,6.21428571 L9,10 L5.21428571,13.7857143 C4.92857143,14.0714286 4.92857143,14.5 5.21428571,14.7857143 C5.35714286,14.9285714 5.5,15 5.71428571,15 C5.92857143,15 6.07142857,14.9285714 6.21428571,14.7857143 L10,11 L13.7857143,14.7857143 C13.9285714,14.9285714 14.1428571,15 14.2857143,15 C14.4285714,15 14.6428571,14.9285714 14.7857143,14.7857143 C15.0714286,14.5 15.0714286,14.0714286 14.7857143,13.7857143 L11,10 L14.7857143,6.21428571 C15.0714286,5.92857143 15.0714286,5.5 14.7857143,5.21428571 Z" id="Shape" fill="#FFFFFF" fill-rule="nonzero"></path>
                                        </g>
                                    </g>
                                </g>
                            </g>
                        </g>
                    </g>
                </g>
            </g>
        </g>
    </g>
</svg>